:FULLY-SPECIFIED
:FORCE-ALL-JOINTS-BE-3DOF
:DEGREES
1019
root 1.14704 15.1607 32.4378 4.84655 -3.38109 363.57
lfemur 8.39554 0.419081 5.73369
ltibia -2.43371e-14 0 0
lfoot -30.1367 -10.9802 0
ltoes -34.4293 0 0
rfemur -31.5359 -15.9549 -6.02753
rtibia 50.1751 0 0
rfoot -22.4251 4.59608 0
rtoes -42.726 0 0
lowerback -1.42897 -0.16737 0.307747
upperback -0.512136 -0.210767 -5.91497
thorax 0.251456 -0.111994 -6.30987
lowerneck -7.21877 0.912935 6.21296
upperneck 1.61069 0.534561 3.4387
head 1.74064 0.399481 0.0485784
lclavicle -3.24608e-15 -2.98034e-15 0
lhumerus -58.5912 -46.3777 115.212
lradius 55.7437 0 0
lwrist 25.3014 0 0
lhand 37.2225 24.8947 0
lfingers 7.12502 0 0
lthumb 60.0556 38.6164 0
rclavicle -3.24608e-15 -2.98034e-15 0
rhumerus 2.77546 -23.8335 0.277766
rradius 27.6888 0 0
rwrist -10.291 0 0
rhand -30.7304 -42.9212 0
rfingers 7.12502 0 0
rthumb -4.02274 -792.863 0
1020
root 1.14726 15.1605 32.4401 4.84871 -3.37175 363.557
lfemur 8.40008 0.412116 5.74755
ltibia -2.32652e-14 0 0
lfoot -30.1415 -10.9695 0
ltoes -34.4456 0 0
rfemur -31.5303 -15.9527 -6.01944
rtibia 50.1845 0 0
rfoot -22.399 4.63226 0
rtoes -42.6639 0 0
lowerback -1.44189 -0.159986 0.289225
upperback -0.514907 -0.200331 -5.92036
thorax 0.257079 -0.106676 -6.30483
lowerneck -7.21926 0.906607 6.23901
upperneck 1.62695 0.523102 3.43537
head 1.74606 0.394456 0.0427522
lclavicle -3.98306e-15 -1.04841e-14 0
lhumerus -58.6026 -46.3875 115.215
lradius 55.7606 0 0
lwrist 25.3112 0 0
lhand 37.2227 24.9281 0
lfingers 7.12502 0 0
lthumb 60.0558 38.6497 0
rclavicle -3.98306e-15 -1.04841e-14 0
rhumerus 2.76252 -23.8198 0.287375
rradius 27.686 0 0
rwrist -10.2546 0 0
rhand -30.7209 -42.8643 0
rfingers 7.12502 0 0
rthumb -4.01356 -792.806 0
1021
root 1.14747 15.1604 32.4422 4.85074 -3.36302 363.544
lfemur 8.40432 0.40561 5.7605
ltibia -2.22639e-14 0 0
lfoot -30.146 -10.9595 0
ltoes -34.4609 0 0
rfemur -31.5251 -15.9507 -6.01189
rtibia 50.1932 0 0
rfoot -22.3746 4.66606 0
rtoes -42.6059 0 0
lowerback -1.45395 -0.153088 0.271925
upperback -0.517494 -0.190583 -5.92539
thorax 0.262331 -0.101709 -6.30012
lowerneck -7.21972 0.900696 6.26333
upperneck 1.64214 0.512399 3.43225
head 1.75113 0.389762 0.0373101
lclavicle -4.67144e-15 -1.74931e-14 0
lhumerus -58.6132 -46.3967 115.218
lradius 55.7764 0 0
lwrist 25.3203 0 0
lhand 37.2229 24.9594 0
lfingers 7.12502 0 0
lthumb 60.056 38.6808 0
rclavicle -4.67144e-15 -1.74931e-14 0
rhumerus 2.75044 -23.8069 0.29635
rradius 27.6834 0 0
rwrist -10.2205 0 0
rhand -30.712 -42.8112 0
rfingers 7.12502 0 0
rthumb -4.00498 -792.753 0
1022
root 1.14827 15.1602 32.4449 4.84636 -3.37025 363.536
lfemur 8.42387 0.410398 5.7662
ltibia -2.02613e-14 0 0
lfoot -30.1481 -10.9696 0
ltoes -34.4529 0 0
rfemur -31.5181 -15.9522 -6.0118
rtibia 50.1962 0 0
rfoot -22.3477 4.73546 0
rtoes -42.514 0 0
lowerback -1.46116 -0.145078 0.254957
upperback -0.518118 -0.179381 -5.93631
thorax 0.266998 -0.0960072 -6.30181
lowerneck -7.21345 0.898129 6.28184
upperneck 1.6507 0.506498 3.45753
head 1.75273 0.387834 0.0419755
lclavicle -4.90612e-15 -1.04841e-14 0
lhumerus -58.6256 -46.4331 115.239
lradius 55.7697 0 0
lwrist 25.3086 0 0
lhand 37.2367 24.9731 0
lfingers 7.12502 0 0
lthumb 60.0678 38.682 0
rclavicle -4.90612e-15 -1.04841e-14 0
rhumerus 2.74149 -23.8117 0.285977
rradius 27.6623 0 0
rwrist -10.1931 0 0
rhand -30.7025 -42.7903 0
rfingers 7.12502 0 0
rthumb -3.9958 -792.732 0
1023
root 1.14912 15.16 32.4478 4.84167 -3.37798 363.528
lfemur 8.4448 0.415525 5.77231
ltibia -1.81174e-14 0 0
lfoot -30.1503 -10.9804 0
ltoes -34.4442 0 0
rfemur -31.5107 -15.9538 -6.01171
rtibia 50.1994 0 0
rfoot -22.319 4.80977 0
rtoes -42.4156 0 0
lowerback -1.46887 -0.136503 0.236792
upperback -0.518787 -0.167388 -5.94799
thorax 0.271995 -0.089903 -6.30362
lowerneck -7.20674 0.895381 6.30165
upperneck 1.65987 0.50018 3.4846
head 1.75444 0.38577 0.0469702
lclavicle -5.15736e-15 -2.98034e-15 0
lhumerus -58.6389 -46.4721 115.261
lradius 55.7625 0 0
lwrist 25.2961 0 0
lhand 37.2515 24.9878 0
lfingers 7.12502 0 0
lthumb 60.0804 38.6834 0
rclavicle -5.15736e-15 -2.98034e-15 0
rhumerus 2.73191 -23.8169 0.274872
rradius 27.6397 0 0
rwrist -10.1639 0 0
rhand -30.6923 -42.768 0
rfingers 7.12502 0 0
rthumb -3.98598 -792.71 0
1024
root 1.15 15.1598 32.4508 4.83682 -3.38598 363.52
lfemur 8.46642 0.42082 5.77862
ltibia -1.59028e-14 0 0
lfoot -30.1526 -10.9915 0
ltoes -34.4353 0 0
rfemur -31.503 -15.9555 -6.01161
rtibia 50.2026 0 0
rfoot -22.2893 4.88652 0
rtoes -42.314 0 0
lowerback -1.47684 -0.127645 0.218027
upperback -0.519478 -0.155 -5.96007
thorax 0.277156 -0.0835975 -6.30549
lowerneck -7.19981 0.892542 6.32212
upperneck 1.66933 0.493654 3.51255
head 1.75621 0.383638 0.0521296
lclavicle -5.41688e-15 4.7708e-15 0
lhumerus -58.6527 -46.5124 115.284
lradius 55.7551 0 0
lwrist 25.2831 0 0
lhand 37.2668 25.003 0
lfingers 7.12502 0 0
lthumb 60.0934 38.6848 0
rclavicle -5.41688e-15 4.7708e-15 0
rhumerus 2.72201 -23.8223 0.263401
rradius 27.6164 0 0
rwrist -10.1336 0 0
rhand -30.6818 -42.7449 0
rfingers 7.12502 0 0
rthumb -3.97583 -792.688 0
1025
root 1.15088 15.1596 32.4538 4.83197 -3.39397 363.512
lfemur 8.48804 0.426115 5.78493
ltibia -1.36882e-14 0 0
lfoot -30.1549 -11.0026 0
ltoes -34.4265 0 0
rfemur -31.4953 -15.9571 -6.01152
rtibia 50.2059 0 0
rfoot -22.2596 4.96327 0
rtoes -42.2124 0 0
lowerback -1.48481 -0.118787 0.199263
upperback -0.520168 -0.142612 -5.97214
thorax 0.282317 -0.077292 -6.30736
lowerneck -7.19288 0.889703 6.34258
upperneck 1.6788 0.487129 3.54051
head 1.75798 0.381506 0.057289
lclavicle -5.6764e-15 1.25219e-14 0
lhumerus -58.6664 -46.5526 115.306
lradius 55.7477 0 0
lwrist 25.2701 0 0
lhand 37.282 25.0181 0
lfingers 7.12502 0 0
lthumb 60.1064 38.6861 0
rclavicle -5.6764e-15 1.25219e-14 0
rhumerus 2.71211 -23.8276 0.25193
rradius 27.5931 0 0
rwrist -10.1033 0 0
rhand -30.6713 -42.7219 0
rfingers 7.12502 0 0
rthumb -3.96569 -792.665 0
1026
root 1.15173 15.1594 32.4567 4.82728 -3.4017 363.504
lfemur 8.50897 0.431242 5.79104
ltibia -1.15442e-14 0 0
lfoot -30.1571 -11.0134 0
ltoes -34.4178 0 0
rfemur -31.4879 -15.9587 -6.01143
rtibia 50.2091 0 0
rfoot -22.2309 5.03758 0
rtoes -42.114 0 0
lowerback -1.49252 -0.110212 0.181098
upperback -0.520837 -0.130619 -5.98382
thorax 0.287314 -0.0711878 -6.30917
lowerneck -7.18617 0.886955 6.36239
upperneck 1.68797 0.480811 3.56758
head 1.75969 0.379442 0.0622837
lclavicle -5.92764e-15 2.00257e-14 0
lhumerus -58.6797 -46.5916 115.328
lradius 55.7405 0 0
lwrist 25.2576 0 0
lhand 37.2968 25.0328 0
lfingers 7.12502 0 0
lthumb 60.119 38.6875 0
rclavicle -5.92764e-15 2.00257e-14 0
rhumerus 2.70253 -23.8328 0.240825
rradius 27.5705 0 0
rwrist -10.0741 0 0
rhand -30.6611 -42.6996 0
rfingers 7.12502 0 0
rthumb -3.95587 -792.643 0
1027
root 1.15253 15.1592 32.4594 4.8229 -3.40893 363.496
lfemur 8.52852 0.43603 5.79674
ltibia -9.54166e-15 0 0
lfoot -30.1592 -11.0235 0
ltoes -34.4098 0 0
rfemur -31.4809 -15.9602 -6.01134
rtibia 50.2121 0 0
rfoot -22.204 5.10698 0
rtoes -42.0221 0 0
lowerback -1.49973 -0.102202 0.16413
upperback -0.521461 -0.119417 -5.99474
thorax 0.291981 -0.065486 -6.31086
lowerneck -7.1799 0.884388 6.3809
upperneck 1.69653 0.47491 3.59286
head 1.76129 0.377514 0.0669491
lclavicle -6.16232e-15 2.70347e-14 0
lhumerus -58.6921 -46.628 115.349
lradius 55.7338 0 0
lwrist 25.2459 0 0
lhand 37.3106 25.0465 0
lfingers 7.12502 0 0
lthumb 60.1308 38.6887 0
rclavicle -6.16232e-15 2.70347e-14 0
rhumerus 2.69358 -23.8376 0.230452
rradius 27.5494 0 0
rwrist -10.0467 0 0
rhand -30.6516 -42.6787 0
rfingers 7.12502 0 0
rthumb -3.94669 -792.622 0
1028
root 1.15453 15.159 32.4626 4.82522 -3.41529 363.5
lfemur 8.5413 0.442609 5.78626
ltibia -5.03588e-15 0 0
lfoot -30.1683 -11.0336 0
ltoes -34.4003 0 0
rfemur -31.4777 -15.9897 -6.02653
rtibia 50.2123 0 0
rfoot -22.1867 5.19713 0
rtoes -41.9336 0 0
lowerback -1.51766 -0.0983059 0.142979
upperback -0.518094 -0.113085 -6.00022
thorax 0.306255 -0.0620331 -6.30448
lowerneck -7.16585 0.882328 6.39148
upperneck 1.67311 0.473805 3.58831
head 1.75114 0.37594 0.0636166
lclavicle -3.72169e-15 2.75354e-14 0
lhumerus -58.689 -46.6434 115.347
lradius 55.7367 0 0
lwrist 25.2644 0 0
lhand 37.3166 25.0599 0
lfingers 7.12502 0 0
lthumb 60.1359 38.6967 0
rclavicle -3.72169e-15 2.75354e-14 0
rhumerus 2.69001 -23.8354 0.24163
rradius 27.5379 0 0
rwrist -10.0187 0 0
rhand -30.6401 -42.6535 0
rfingers 7.12502 0 0
rthumb -3.93555 -792.597 0
1029
root 1.15668 15.1588 32.4661 4.8277 -3.4221 363.505
lfemur 8.55497 0.449652 5.77505
ltibia -2.12043e-16 0 0
lfoot -30.1781 -11.0444 0
ltoes -34.39 0 0
rfemur -31.4743 -16.0212 -6.04279
rtibia 50.2125 0 0
rfoot -22.1683 5.29363 0
rtoes -41.8388 0 0
lowerback -1.53686 -0.0941347 0.120335
upperback -0.514488 -0.106306 -6.00608
thorax 0.321537 -0.0583365 -6.29764
lowerneck -7.1508 0.880122 6.4028
upperneck 1.64803 0.472623 3.58344
head 1.74028 0.374254 0.0600489
lclavicle -1.10877e-15 2.80713e-14 0
lhumerus -58.6857 -46.6598 115.345
lradius 55.7398 0 0
lwrist 25.2842 0 0
lhand 37.323 25.0743 0
lfingers 7.12502 0 0
lthumb 60.1414 38.7052 0
rclavicle -1.10877e-15 2.80713e-14 0
rhumerus 2.6862 -23.8331 0.253597
rradius 27.5256 0 0
rwrist -9.98874 0 0
rhand -30.6277 -42.6266 0
rfingers 7.12502 0 0
rthumb -3.92362 -792.57 0
1030
root 1.15889 15.1587 32.4696 4.83026 -3.42914 363.51
lfemur 8.5691 0.456927 5.76347
ltibia 4.77082e-15 0 0
lfoot -30.1882 -11.0555 0
ltoes -34.3795 0 0
rfemur -31.4707 -16.0539 -6.05959
rtibia 50.2127 0 0
rfoot -22.1492 5.39332 0
rtoes -41.7409 0 0
lowerback -1.55669 -0.0898261 0.0969437
upperback -0.510764 -0.0993039 -6.01214
thorax 0.337322 -0.0545181 -6.29058
lowerneck -7.13526 0.877844 6.4145
upperneck 1.62213 0.471402 3.57841
head 1.72906 0.372513 0.0563635
lclavicle 1.59028e-15 2.8625e-14 0
lhumerus -58.6823 -46.6769 115.343
lradius 55.743 0 0
lwrist 25.3046 0 0
lhand 37.3297 25.0891 0
lfingers 7.12502 0 0
lthumb 60.1471 38.7141 0
rclavicle 1.59028e-15 2.8625e-14 0
rhumerus 2.68225 -23.8307 0.265959
rradius 27.5129 0 0
rwrist -9.95778 0 0
rhand -30.615 -42.5988 0
rfingers 7.12502 0 0
rthumb -3.91131 -792.542 0
1031
root 1.1611 15.1585 32.4732 4.83283 -3.43618 363.515
lfemur 8.58323 0.464202 5.75188
ltibia 9.75368e-15 0 0
lfoot -30.1983 -11.0666 0
ltoes -34.369 0 0
rfemur -31.4672 -16.0865 -6.07639
rtibia 50.2129 0 0
rfoot -22.1301 5.49302 0
rtoes -41.643 0 0
lowerback -1.57653 -0.0855175 0.073553
upperback -0.507041 -0.0923016 -6.0182
thorax 0.353107 -0.0506996 -6.28352
lowerneck -7.11972 0.875566 6.4262
upperneck 1.59623 0.47018 3.57338
head 1.71783 0.370772 0.0526782
lclavicle 4.28933e-15 2.91787e-14 0
lhumerus -58.6789 -46.6939 115.342
lradius 55.7463 0 0
lwrist 25.325 0 0
lhand 37.3363 25.104 0
lfingers 7.12502 0 0
lthumb 60.1528 38.7229 0
rclavicle 4.28933e-15 2.91787e-14 0
rhumerus 2.67831 -23.8282 0.278321
rradius 27.5001 0 0
rwrist -9.92683 0 0
rhand -30.6022 -42.5709 0
rfingers 7.12502 0 0
rthumb -3.89899 -792.515 0
1032
root 1.16325 15.1583 32.4767 4.83531 -3.44299 363.52
lfemur 8.5969 0.471245 5.74067
ltibia 1.45775e-14 0 0
lfoot -30.2081 -11.0774 0
ltoes -34.3587 0 0
rfemur -31.4638 -16.118 -6.09265
rtibia 50.2131 0 0
rfoot -22.1117 5.58952 0
rtoes -41.5482 0 0
lowerback -1.59573 -0.0813463 0.0509087
upperback -0.503435 -0.0855227 -6.02406
thorax 0.368389 -0.047003 -6.27668
lowerneck -7.10467 0.87336 6.43752
upperneck 1.57115 0.468998 3.56851
head 1.70697 0.369086 0.0491105
lclavicle 6.90225e-15 2.97147e-14 0
lhumerus -58.6756 -46.7103 115.34
lradius 55.7494 0 0
lwrist 25.3448 0 0
lhand 37.3427 25.1184 0
lfingers 7.12502 0 0
lthumb 60.1583 38.7314 0
rclavicle 6.90225e-15 2.97147e-14 0
rhumerus 2.6745 -23.8259 0.290288
rradius 27.4878 0 0
rwrist -9.89686 0 0
rhand -30.5898 -42.544 0
rfingers 7.12502 0 0
rthumb -3.88706 -792.488 0
